@startuml

package 経費清算 as expense_system {
  entity "経費精算" as expense {
    + id [PK]
    --
    # user_id [FK]
    user_name : 不要
    date
    type
    description
    amount
    created_at
    updated_at
  }
}

package ユーザー管理 as user_management {
  entity "ユーザーマスター" as user {
    + id [PK]
    --
    # boss_id [FK]
    first_name
    last_name
    email
    hash
    created_at
    updated_at
    deleted_at
  }

  entity "権限" as role {
    + id [PK]
    --
    # user_id [FK]
    name
    created_at
    updated_at
  }
}

  user ||--|{ role
  user ||--o{ expense

@enduml